<svg width="18" height="18" viewBox="0 0 18 18" fill="none" xmlns="http://www.w3.org/2000/svg">
<path d="M14 6.11959e-07C16.2091 7.08524e-07 18 1.79086 18 4L18 14C18 16.2091 16.2091 18 14 18L4 18C1.79086 18 7.82808e-08 16.2091 1.74845e-07 14L6.11959e-07 4C7.08524e-07 1.79086 1.79086 7.8281e-08 4 1.74846e-07L14 6.11959e-07Z" fill="white"/>
<path fill-rule="evenodd" clip-rule="evenodd" d="M8.04012 8.60251C7.93478 8.70798 7.87561 8.85094 7.87561 9.00001C7.87561 9.14907 7.93478 9.29204 8.04012 9.39751L13.6651 15.0225C13.7717 15.1219 13.9128 15.176 14.0585 15.1734C14.2042 15.1708 14.3433 15.1118 14.4463 15.0087C14.5494 14.9057 14.6084 14.7666 14.611 14.6209C14.6136 14.4752 14.5595 14.3341 14.4601 14.2275L9.23262 9.00001L14.4601 3.77251C14.5595 3.66588 14.6136 3.52484 14.611 3.37912C14.6084 3.23339 14.5494 3.09435 14.4463 2.99129C14.3433 2.88823 14.2042 2.8292 14.0585 2.82663C13.9128 2.82406 13.7717 2.87815 13.6651 2.97751L8.04012 8.60251Z" fill="#7489FF"/>
<path fill-rule="evenodd" clip-rule="evenodd" d="M3.53988 8.60251C3.43455 8.70798 3.37538 8.85094 3.37538 9.00001C3.37538 9.14907 3.43455 9.29204 3.53988 9.39751L9.16488 15.0225C9.21638 15.0778 9.27848 15.1221 9.34748 15.1528C9.41648 15.1836 9.49097 15.2001 9.56649 15.2015C9.64202 15.2028 9.71704 15.1889 9.78708 15.1606C9.85712 15.1323 9.92075 15.0902 9.97416 15.0368C10.0276 14.9834 10.0697 14.9197 10.098 14.8497C10.1263 14.7797 10.1402 14.7046 10.1388 14.6291C10.1375 14.5536 10.121 14.4791 10.0902 14.4101C10.0595 14.3411 10.0151 14.279 9.95988 14.2275L4.73238 9.00001L9.95989 3.77251C10.0592 3.66588 10.1133 3.52484 10.1108 3.37912C10.1082 3.23339 10.0492 3.09435 9.9461 2.99129C9.84304 2.88823 9.704 2.8292 9.55828 2.82663C9.41255 2.82406 9.27152 2.87815 9.16489 2.97751L3.53988 8.60251Z" fill="#7489FF"/>
</svg>
